<?xml version="1.0" standalone="no"?>
<!DOCTYPE svg PUBLIC "-//W3C//DTD SVG 20010904//EN"
 "http://www.w3.org/TR/2001/REC-SVG-20010904/DTD/svg10.dtd">
<svg version="1.0" xmlns="http://www.w3.org/2000/svg"
 width="96.000000pt" height="96.000000pt" viewBox="0 0 96.000000 96.000000"
 preserveAspectRatio="xMidYMid meet">

<g transform="translate(0.000000,96.000000) scale(0.100000,-0.100000)"
fill="#FFFFFF" stroke="#FFFFFF" stroke-width="10">
<path d="M386 869 c-62 -15 -153 -68 -197 -116 -97 -105 -130 -248 -89 -385
l22 -76 -22 -87 -23 -86 21 -21 21 -21 88 23 c102 26 123 36 123 54 0 32 -25
36 -99 15 -40 -11 -75 -18 -78 -16 -2 3 4 37 15 76 l21 72 -22 47 c-33 71 -31
198 4 272 54 115 163 189 291 198 73 5 92 18 68 47 -14 17 -81 19 -144 4z"/>
<path d="M594 835 c-8 -20 2 -33 45 -54 55 -29 121 -99 150 -161 37 -79 37
-201 0 -280 -52 -110 -157 -184 -281 -198 -59 -7 -63 -9 -63 -32 0 -24 2 -25
67 -23 135 3 259 87 326 221 35 72 37 81 37 171 0 87 -3 102 -31 162 -39 81
-92 142 -159 180 -56 32 -83 36 -91 14z"/>
<path d="M284 565 c-4 -8 -4 -22 0 -30 5 -13 33 -15 198 -13 l193 3 0 25 0 25
-193 3 c-165 2 -193 0 -198 -13z"/>
<path d="M284 425 c-4 -8 -4 -22 0 -30 5 -13 29 -15 158 -13 l153 3 0 25 0 25
-153 3 c-129 2 -153 0 -158 -13z"/>
</g>
</svg>