<svg version="1.0" xmlns="http://www.w3.org/2000/svg" width="64.000000pt" height="64.000000pt" viewBox="0 0 64.000000 64.000000" preserveAspectRatio="xMidYMid meet">
  <rect width="100%" height="100%" fill="black"/>
  <g transform="translate(0.000000,64.000000) scale(0.100000,-0.100000)" fill="white" stroke="none">
    <path d="M0 320 l0 -320 320 0 320 0 0 282 0 283 -138 -137 c-101 -101 -150 -142 -186 -158 -27 -11 -53 -17 -57 -13 -5 5 3 33 17 62 l24 54 25 -23 c32 -30 54 -16 24 16 l-23 25 104 105 c58 57 115 107 127 110 12 3 36 -1 53 -9 l30 -15 0 29 0 29 -320 0 -320 0 0 -320z m410 275 c0 -13 -25 -15 -163 -15 -113 0 -167 -4 -175 -12 -17 -17 -17 -479 0 -496 17 -17 479 -17 496 0 8 8 12 62 12 175 0 138 2 163 15 163 13 0 15 -26 15 -170 0 -157 -2 -172 -20 -190 -19 -19 -33 -20 -270 -20 -237 0 -251 1 -270 20 -19 19 -20 33 -20 270 0 237 1 251 20 270 18 18 33 20 190 20 144 0 170 -2 170 -15z m-25 -395 c3 -6 -1 -7 -9 -4 -24 9 -19 -11 6 -28 12 -8 18 -19 14 -26 -8 -14 -42 -16 -50 -3 -3 4 7 6 22 4 l27 -5 -24 20 c-15 12 -22 25 -18 36 7 18 23 21 32 6z m39 -40 c1 -16 -2 -30 -6 -30 -5 0 -8 17 -8 37 0 43 13 37 14 -7z m116 20 c0 -5 -7 -7 -15 -4 -11 4 -15 0 -15 -16 0 -16 4 -20 15 -16 8 3 15 1 15 -4 0 -16 -30 -11 -36 5 -4 8 -4 22 0 30 6 16 36 21 36 5z m-79 -40 c5 0 14 10 19 23 8 21 9 21 9 -6 1 -24 -3 -28 -21 -25 -15 2 -23 10 -24 23 -1 15 0 16 3 3 3 -10 9 -18 14 -18z"/>
  </g>
</svg>
